<svg width="301" height="260" viewBox="0 0 301 260" fill="none" xmlns="http://www.w3.org/2000/svg">
<g filter="url(#filter0_d_2101_451)">
<rect x="35.48" y="30.8896" width="230" height="189" rx="8" fill="white" shape-rendering="crispEdges"/>
<path d="M109.073 168.89V170.97H104.613V182.89H102.533V170.97H98.0827V168.89H109.073ZM110.084 172.89H112.164V182.89H110.084V172.89ZM111.144 171.44C110.824 171.44 110.558 171.336 110.344 171.13C110.131 170.923 110.024 170.663 110.024 170.35C110.024 170.043 110.131 169.786 110.344 169.58C110.558 169.366 110.821 169.26 111.134 169.26C111.441 169.26 111.701 169.366 111.914 169.58C112.128 169.786 112.234 170.043 112.234 170.35C112.234 170.663 112.128 170.923 111.914 171.13C111.708 171.336 111.451 171.44 111.144 171.44ZM114.479 182.89V172.89H116.559V173.95C116.905 173.536 117.329 173.21 117.829 172.97C118.335 172.73 118.882 172.61 119.469 172.61C120.182 172.61 120.839 172.783 121.439 173.13C122.039 173.47 122.515 173.923 122.869 174.49C123.222 173.923 123.692 173.47 124.279 173.13C124.872 172.783 125.525 172.61 126.239 172.61C126.979 172.61 127.652 172.79 128.259 173.15C128.865 173.51 129.349 173.993 129.709 174.6C130.069 175.206 130.249 175.88 130.249 176.62V182.89H128.169V177.15C128.169 176.71 128.062 176.306 127.849 175.94C127.635 175.573 127.349 175.276 126.989 175.05C126.629 174.823 126.229 174.71 125.789 174.71C125.349 174.71 124.949 174.816 124.589 175.03C124.229 175.243 123.942 175.533 123.729 175.9C123.515 176.266 123.409 176.683 123.409 177.15V182.89H121.329V177.15C121.329 176.683 121.222 176.266 121.009 175.9C120.795 175.533 120.505 175.243 120.139 175.03C119.779 174.816 119.379 174.71 118.939 174.71C118.505 174.71 118.105 174.823 117.739 175.05C117.379 175.276 117.092 175.573 116.879 175.94C116.665 176.306 116.559 176.71 116.559 177.15V182.89H114.479ZM136.457 183.15C135.537 183.15 134.697 182.913 133.937 182.44C133.184 181.966 132.58 181.333 132.127 180.54C131.68 179.74 131.457 178.856 131.457 177.89C131.457 177.156 131.587 176.473 131.847 175.84C132.107 175.2 132.464 174.64 132.917 174.16C133.377 173.673 133.91 173.293 134.517 173.02C135.124 172.746 135.77 172.61 136.457 172.61C137.224 172.61 137.927 172.77 138.567 173.09C139.207 173.403 139.754 173.84 140.207 174.4C140.66 174.953 140.994 175.593 141.207 176.32C141.42 177.04 141.484 177.806 141.397 178.62H133.687C133.774 179.08 133.94 179.496 134.187 179.87C134.44 180.236 134.76 180.526 135.147 180.74C135.54 180.953 135.977 181.063 136.457 181.07C136.964 181.07 137.424 180.943 137.837 180.69C138.257 180.436 138.6 180.086 138.867 179.64L140.977 180.13C140.577 181.016 139.974 181.743 139.167 182.31C138.36 182.87 137.457 183.15 136.457 183.15ZM133.617 177.03H139.297C139.23 176.55 139.06 176.116 138.787 175.73C138.52 175.336 138.184 175.026 137.777 174.8C137.377 174.566 136.937 174.45 136.457 174.45C135.984 174.45 135.544 174.563 135.137 174.79C134.737 175.016 134.404 175.326 134.137 175.72C133.877 176.106 133.704 176.543 133.617 177.03ZM153.023 183.15C152.257 183.15 151.52 183.03 150.813 182.79C150.107 182.55 149.49 182.206 148.963 181.76C148.437 181.306 148.06 180.77 147.833 180.15L149.783 179.42C149.897 179.74 150.113 180.026 150.433 180.28C150.76 180.526 151.147 180.72 151.593 180.86C152.047 181 152.523 181.07 153.023 181.07C153.557 181.07 154.057 180.983 154.523 180.81C154.997 180.636 155.377 180.396 155.663 180.09C155.957 179.783 156.103 179.423 156.103 179.01C156.103 178.583 155.95 178.233 155.643 177.96C155.343 177.686 154.957 177.47 154.483 177.31C154.017 177.15 153.53 177.03 153.023 176.95C152.043 176.79 151.163 176.556 150.383 176.25C149.61 175.943 148.997 175.513 148.543 174.96C148.097 174.406 147.873 173.686 147.873 172.8C147.873 171.966 148.11 171.24 148.583 170.62C149.063 170 149.693 169.52 150.473 169.18C151.26 168.833 152.11 168.66 153.023 168.66C153.777 168.66 154.503 168.78 155.203 169.02C155.91 169.253 156.53 169.596 157.063 170.05C157.603 170.496 157.99 171.04 158.223 171.68L156.253 172.39C156.14 172.063 155.923 171.78 155.603 171.54C155.283 171.293 154.897 171.1 154.443 170.96C153.997 170.82 153.523 170.75 153.023 170.75C152.49 170.743 151.99 170.83 151.523 171.01C151.063 171.183 150.687 171.423 150.393 171.73C150.1 172.036 149.953 172.393 149.953 172.8C149.953 173.3 150.09 173.68 150.363 173.94C150.637 174.2 151.003 174.393 151.463 174.52C151.93 174.64 152.45 174.75 153.023 174.85C153.943 174.996 154.793 175.24 155.573 175.58C156.36 175.92 156.99 176.373 157.463 176.94C157.943 177.5 158.183 178.19 158.183 179.01C158.183 179.836 157.943 180.563 157.463 181.19C156.99 181.81 156.36 182.293 155.573 182.64C154.793 182.98 153.943 183.15 153.023 183.15ZM167.942 172.89H170.022V182.89H167.932L167.852 181.44C167.559 181.953 167.162 182.366 166.662 182.68C166.162 182.993 165.572 183.15 164.892 183.15C164.159 183.15 163.469 183.013 162.822 182.74C162.176 182.46 161.606 182.073 161.112 181.58C160.626 181.086 160.246 180.52 159.972 179.88C159.699 179.233 159.562 178.54 159.562 177.8C159.562 177.086 159.696 176.416 159.962 175.79C160.229 175.156 160.599 174.603 161.072 174.13C161.546 173.656 162.092 173.286 162.712 173.02C163.339 172.746 164.009 172.61 164.722 172.61C165.449 172.61 166.089 172.776 166.642 173.11C167.202 173.436 167.666 173.856 168.032 174.37L167.942 172.89ZM164.842 181.14C165.429 181.14 165.942 180.996 166.382 180.71C166.822 180.416 167.162 180.023 167.402 179.53C167.649 179.036 167.772 178.49 167.772 177.89C167.772 177.283 167.649 176.733 167.402 176.24C167.156 175.746 166.812 175.356 166.372 175.07C165.939 174.776 165.429 174.63 164.842 174.63C164.262 174.63 163.732 174.776 163.252 175.07C162.772 175.363 162.392 175.756 162.112 176.25C161.832 176.743 161.692 177.29 161.692 177.89C161.692 178.496 161.836 179.046 162.122 179.54C162.416 180.026 162.799 180.416 163.272 180.71C163.752 180.996 164.276 181.14 164.842 181.14ZM177.367 182.89H174.697L171.047 172.87H173.267L176.027 180.49L178.797 172.87H181.007L177.367 182.89ZM186.555 183.15C185.635 183.15 184.795 182.913 184.035 182.44C183.281 181.966 182.678 181.333 182.225 180.54C181.778 179.74 181.555 178.856 181.555 177.89C181.555 177.156 181.685 176.473 181.945 175.84C182.205 175.2 182.561 174.64 183.015 174.16C183.475 173.673 184.008 173.293 184.615 173.02C185.221 172.746 185.868 172.61 186.555 172.61C187.321 172.61 188.025 172.77 188.665 173.09C189.305 173.403 189.851 173.84 190.305 174.4C190.758 174.953 191.091 175.593 191.305 176.32C191.518 177.04 191.581 177.806 191.495 178.62H183.785C183.871 179.08 184.038 179.496 184.285 179.87C184.538 180.236 184.858 180.526 185.245 180.74C185.638 180.953 186.075 181.063 186.555 181.07C187.061 181.07 187.521 180.943 187.935 180.69C188.355 180.436 188.698 180.086 188.965 179.64L191.075 180.13C190.675 181.016 190.071 181.743 189.265 182.31C188.458 182.87 187.555 183.15 186.555 183.15ZM183.715 177.03H189.395C189.328 176.55 189.158 176.116 188.885 175.73C188.618 175.336 188.281 175.026 187.875 174.8C187.475 174.566 187.035 174.45 186.555 174.45C186.081 174.45 185.641 174.563 185.235 174.79C184.835 175.016 184.501 175.326 184.235 175.72C183.975 176.106 183.801 176.543 183.715 177.03ZM200.921 167.89H203.001V182.89H200.921V181.42C200.594 181.94 200.168 182.36 199.641 182.68C199.114 182.993 198.498 183.15 197.791 183.15C197.064 183.15 196.384 183.013 195.751 182.74C195.118 182.466 194.558 182.09 194.071 181.61C193.591 181.123 193.214 180.563 192.941 179.93C192.668 179.296 192.531 178.616 192.531 177.89C192.531 177.163 192.668 176.483 192.941 175.85C193.214 175.21 193.591 174.65 194.071 174.17C194.558 173.683 195.118 173.303 195.751 173.03C196.384 172.756 197.064 172.62 197.791 172.62C198.498 172.62 199.114 172.78 199.641 173.1C200.168 173.413 200.594 173.826 200.921 174.34V167.89ZM197.811 181.14C198.398 181.14 198.911 180.996 199.351 180.71C199.791 180.416 200.131 180.023 200.371 179.53C200.618 179.036 200.741 178.49 200.741 177.89C200.741 177.283 200.618 176.733 200.371 176.24C200.124 175.746 199.781 175.356 199.341 175.07C198.908 174.776 198.398 174.63 197.811 174.63C197.231 174.63 196.701 174.776 196.221 175.07C195.748 175.363 195.368 175.756 195.081 176.25C194.801 176.743 194.661 177.29 194.661 177.89C194.661 178.496 194.804 179.046 195.091 179.54C195.384 180.026 195.768 180.416 196.241 180.71C196.721 180.996 197.244 181.14 197.811 181.14Z" fill="#343F52"/>
<g clip-path="url(#clip0_2101_451)">
<path d="M70.5801 145.89C70.5801 124.699 78.9981 104.376 93.9822 89.3919C108.966 74.4078 129.289 65.9897 150.48 65.9897C171.671 65.9897 191.994 74.4078 206.978 89.3919C221.962 104.376 230.38 124.699 230.38 145.89" stroke="#E668B3" stroke-opacity="0.1" stroke-width="10.2"/>
<path d="M70.5801 145.89C70.5801 124.699 78.9981 104.376 93.9822 89.3919C108.966 74.4078 129.289 65.9897 150.48 65.9897C171.671 65.9897 191.994 74.4078 206.978 89.3919C221.962 104.376 230.38 124.699 230.38 145.89" stroke="#E668B3" stroke-width="10.2" stroke-dasharray="251.1 251.1"/>
</g>
<path d="M131.886 140.41C130.219 140.41 128.699 140.03 127.326 139.27C125.966 138.51 124.879 137.496 124.066 136.23C123.266 134.95 122.866 133.536 122.866 131.99C122.866 130.55 123.246 129.23 124.006 128.03C124.766 126.816 125.759 125.856 126.986 125.15C125.986 124.51 125.159 123.663 124.506 122.61C123.866 121.543 123.546 120.39 123.546 119.15C123.546 117.71 123.919 116.403 124.666 115.23C125.426 114.056 126.433 113.123 127.686 112.43C128.953 111.723 130.353 111.37 131.886 111.37C133.419 111.37 134.813 111.723 136.066 112.43C137.333 113.123 138.339 114.056 139.086 115.23C139.846 116.403 140.226 117.71 140.226 119.15C140.226 120.39 139.906 121.543 139.266 122.61C138.626 123.663 137.793 124.51 136.766 125.15C138.033 125.856 139.039 126.816 139.786 128.03C140.546 129.23 140.926 130.55 140.926 131.99C140.926 133.523 140.519 134.93 139.706 136.21C138.893 137.49 137.799 138.51 136.426 139.27C135.066 140.03 133.553 140.41 131.886 140.41ZM131.886 137.05C132.899 137.05 133.813 136.823 134.626 136.37C135.453 135.916 136.113 135.31 136.606 134.55C137.099 133.776 137.346 132.923 137.346 131.99C137.346 131.043 137.099 130.19 136.606 129.43C136.113 128.67 135.453 128.063 134.626 127.61C133.813 127.156 132.899 126.93 131.886 126.93C130.886 126.93 129.973 127.156 129.146 127.61C128.319 128.063 127.659 128.67 127.166 129.43C126.673 130.19 126.426 131.043 126.426 131.99C126.426 132.923 126.673 133.776 127.166 134.55C127.659 135.31 128.319 135.916 129.146 136.37C129.973 136.823 130.886 137.05 131.886 137.05ZM131.886 123.57C132.766 123.57 133.566 123.37 134.286 122.97C135.006 122.57 135.579 122.036 136.006 121.37C136.446 120.703 136.666 119.963 136.666 119.15C136.666 118.323 136.446 117.583 136.006 116.93C135.579 116.263 135.006 115.73 134.286 115.33C133.566 114.93 132.766 114.73 131.886 114.73C131.006 114.73 130.206 114.93 129.486 115.33C128.766 115.73 128.186 116.263 127.746 116.93C127.319 117.583 127.106 118.323 127.106 119.15C127.106 119.963 127.319 120.703 127.746 121.37C128.186 122.036 128.766 122.57 129.486 122.97C130.206 123.37 131.006 123.57 131.886 123.57ZM154.496 140.41C152.829 140.41 151.336 140.036 150.016 139.29C148.696 138.53 147.563 137.483 146.616 136.15C145.669 134.816 144.949 133.276 144.456 131.53C143.963 129.77 143.716 127.89 143.716 125.89C143.716 123.89 143.963 122.01 144.456 120.25C144.949 118.49 145.669 116.95 146.616 115.63C147.563 114.296 148.696 113.256 150.016 112.51C151.336 111.75 152.829 111.37 154.496 111.37C156.149 111.37 157.636 111.75 158.956 112.51C160.289 113.256 161.416 114.296 162.336 115.63C163.269 116.95 163.983 118.49 164.476 120.25C164.983 122.01 165.236 123.89 165.236 125.89C165.236 127.89 164.983 129.77 164.476 131.53C163.983 133.276 163.269 134.816 162.336 136.15C161.416 137.483 160.289 138.53 158.956 139.29C157.636 140.036 156.149 140.41 154.496 140.41ZM154.496 137.05C156.163 137.05 157.556 136.536 158.676 135.51C159.809 134.47 160.656 133.103 161.216 131.41C161.776 129.716 162.056 127.876 162.056 125.89C162.056 123.796 161.763 121.91 161.176 120.23C160.603 118.536 159.749 117.196 158.616 116.21C157.496 115.223 156.123 114.73 154.496 114.73C153.216 114.73 152.096 115.03 151.136 115.63C150.189 116.23 149.403 117.05 148.776 118.09C148.149 119.13 147.676 120.323 147.356 121.67C147.049 123.003 146.896 124.41 146.896 125.89C146.896 127.876 147.183 129.723 147.756 131.43C148.329 133.123 149.176 134.483 150.296 135.51C151.429 136.536 152.829 137.05 154.496 137.05Z" fill="#343F52"/>
<path d="M168.344 140.89L176.424 126.89H178.364L170.284 140.89H168.344ZM170.004 132.52C169.531 132.52 169.101 132.406 168.714 132.18C168.334 131.953 168.027 131.646 167.794 131.26C167.561 130.873 167.444 130.443 167.444 129.97C167.444 129.483 167.561 129.05 167.794 128.67C168.027 128.283 168.337 127.976 168.724 127.75C169.111 127.523 169.537 127.41 170.004 127.41C170.471 127.41 170.897 127.526 171.284 127.76C171.671 127.986 171.977 128.293 172.204 128.68C172.437 129.06 172.554 129.49 172.554 129.97C172.554 130.45 172.437 130.883 172.204 131.27C171.971 131.65 171.661 131.953 171.274 132.18C170.887 132.406 170.464 132.52 170.004 132.52ZM170.004 131.29C170.371 131.29 170.681 131.163 170.934 130.91C171.194 130.65 171.324 130.336 171.324 129.97C171.324 129.596 171.194 129.283 170.934 129.03C170.681 128.77 170.371 128.64 170.004 128.64C169.637 128.64 169.324 128.77 169.064 129.03C168.804 129.283 168.674 129.596 168.674 129.97C168.674 130.336 168.804 130.65 169.064 130.91C169.324 131.163 169.637 131.29 170.004 131.29ZM176.714 140.38C176.247 140.38 175.817 140.263 175.424 140.03C175.037 139.79 174.727 139.476 174.494 139.09C174.267 138.696 174.154 138.273 174.154 137.82C174.154 137.34 174.271 136.906 174.504 136.52C174.744 136.133 175.057 135.826 175.444 135.6C175.831 135.373 176.254 135.26 176.714 135.26C177.194 135.26 177.627 135.38 178.014 135.62C178.401 135.853 178.707 136.163 178.934 136.55C179.161 136.936 179.274 137.36 179.274 137.82C179.274 138.293 179.157 138.723 178.924 139.11C178.697 139.496 178.391 139.806 178.004 140.04C177.617 140.266 177.187 140.38 176.714 140.38ZM176.714 139.15C177.081 139.15 177.394 139.02 177.654 138.76C177.914 138.5 178.044 138.186 178.044 137.82C178.044 137.453 177.914 137.14 177.654 136.88C177.394 136.62 177.081 136.49 176.714 136.49C176.347 136.49 176.034 136.62 175.774 136.88C175.514 137.14 175.384 137.453 175.384 137.82C175.384 138.186 175.514 138.5 175.774 138.76C176.034 139.02 176.347 139.15 176.714 139.15Z" fill="#343F52"/>
</g>
<defs>
<filter id="filter0_d_2101_451" x="0.47998" y="0.889648" width="300" height="259" filterUnits="userSpaceOnUse" color-interpolation-filters="sRGB">
<feFlood flood-opacity="0" result="BackgroundImageFix"/>
<feColorMatrix in="SourceAlpha" type="matrix" values="0 0 0 0 0 0 0 0 0 0 0 0 0 0 0 0 0 0 127 0" result="hardAlpha"/>
<feOffset dy="5"/>
<feGaussianBlur stdDeviation="17.5"/>
<feComposite in2="hardAlpha" operator="out"/>
<feColorMatrix type="matrix" values="0 0 0 0 0.117647 0 0 0 0 0.133333 0 0 0 0 0.156863 0 0 0 0.07 0"/>
<feBlend mode="normal" in2="BackgroundImageFix" result="effect1_dropShadow_2101_451"/>
<feBlend mode="normal" in="SourceGraphic" in2="effect1_dropShadow_2101_451" result="shape"/>
</filter>
<clipPath id="clip0_2101_451">
<rect width="170" height="85" fill="white" transform="translate(65.48 60.8896)"/>
</clipPath>
</defs>
</svg>
