<svg width="279" height="170" viewBox="0 0 279 170" fill="none" xmlns="http://www.w3.org/2000/svg">
<g filter="url(#filter0_d_2101_442)">
<rect x="35.4399" y="30.3896" width="207.66" height="99" rx="8" fill="white" shape-rendering="crispEdges"/>
<g clip-path="url(#clip0_2101_442)">
<path d="M82.44 89.0558C84.4647 89.0558 86.1061 87.4145 86.1061 85.3897C86.1061 83.365 84.4647 81.7236 82.44 81.7236C80.4153 81.7236 78.7739 83.365 78.7739 85.3897C78.7739 87.4145 80.4153 89.0558 82.44 89.0558Z" fill="#F857A6"/>
<path d="M88.3988 100.056H76.4828C76.1181 100.056 75.7683 99.9108 75.5105 99.6529C75.2526 99.3951 75.1078 99.0453 75.1078 98.6807V95.9307C75.1091 94.5941 75.6407 93.3127 76.5858 92.3676C77.5309 91.4225 78.8123 90.8909 80.1488 90.8896H84.7328C86.0695 90.8905 87.3512 91.4219 88.2963 92.3671C89.2415 93.3123 89.7729 94.594 89.7738 95.9307V98.6807C89.7738 99.0453 89.629 99.3951 89.3711 99.6529C89.1133 99.9108 88.7635 100.056 88.3988 100.056ZM93.8988 89.0557H91.4599C92.3801 89.948 93.1109 91.0168 93.6085 92.1981C94.1061 93.3794 94.3604 94.6489 94.356 95.9307V96.3896H97.5649C97.9288 96.3869 98.277 96.2411 98.5342 95.9839C98.7915 95.7266 98.9372 95.3784 98.9399 95.0146V94.0985C98.9404 93.4363 98.8103 92.7805 98.5572 92.1685C98.304 91.5566 97.9327 91.0006 97.4646 90.5323C96.9964 90.0639 96.4405 89.6925 95.8287 89.4391C95.2168 89.1857 94.5611 89.0554 93.8988 89.0557ZM70.981 89.0557C70.3188 89.0552 69.6629 89.1854 69.051 89.4386C68.439 89.6919 67.8831 90.0634 67.4148 90.5318C66.9466 91.0001 66.5753 91.5563 66.3223 92.1683C66.0692 92.7803 65.9393 93.4362 65.9399 94.0985V95.018C65.9426 95.3818 66.0884 95.73 66.3457 95.9873C66.6029 96.2446 66.9511 96.3903 67.3149 96.393H70.5238V95.9341C70.5195 94.6523 70.7738 93.3828 71.2714 92.2015C71.769 91.0202 72.4998 89.9515 73.4199 89.0591L70.981 89.0557Z" fill="#F857A6"/>
<path d="M73.2738 87.2218C75.2985 87.2218 76.9399 85.5805 76.9399 83.5557C76.9399 81.531 75.2985 79.8896 73.2738 79.8896C71.249 79.8896 69.6077 81.531 69.6077 83.5557C69.6077 85.5805 71.249 87.2218 73.2738 87.2218Z" fill="#F857A6"/>
<path d="M91.606 87.2218C93.6308 87.2218 95.2721 85.5805 95.2721 83.5557C95.2721 81.531 93.6308 79.8896 91.606 79.8896C89.5813 79.8896 87.9399 81.531 87.9399 83.5557C87.9399 85.5805 89.5813 87.2218 91.606 87.2218Z" fill="#F857A6"/>
<path d="M65.1149 87.729C65.5781 87.301 66.0851 86.9231 66.6274 86.6015C65.8767 84.9819 65.7453 83.1435 66.258 81.4336C66.7707 79.7238 67.892 78.261 69.41 77.3218C70.9281 76.3826 72.7375 76.0321 74.4965 76.3364C76.2554 76.6408 77.8419 77.579 78.956 78.9736C80.0178 78.3697 81.2184 78.0522 82.4399 78.0522C83.6615 78.0522 84.862 78.3697 85.9238 78.9736C87.038 77.579 88.6245 76.6408 90.3834 76.3364C92.1423 76.0321 93.9518 76.3826 95.4698 77.3218C96.9878 78.261 98.1092 79.7238 98.6219 81.4336C99.1346 83.1435 99.0032 84.9819 98.2524 86.6015C98.6008 86.8089 98.9355 87.0386 99.2545 87.289C101.194 86.0714 102.707 84.2824 103.587 82.1686C104.467 80.0547 104.67 77.72 104.167 75.4861C103.665 73.2523 102.482 71.2292 100.782 69.6956C99.0817 68.1621 96.9477 67.1936 94.674 66.9235C93.4637 64.7401 91.6907 62.9207 89.5392 61.6546C87.3877 60.3884 84.9363 59.7216 82.4399 59.7236C75.9413 59.7236 70.3038 64.2439 68.879 70.4108C64.1421 70.9075 60.4399 74.8864 60.4399 79.7058C60.4399 83.1313 62.3306 86.1013 65.1149 87.729Z" fill="#605DBA"/>
</g>
<path d="M120.44 76.3896V74.0771C121.032 73.5855 121.711 73.0146 122.477 72.3646C123.244 71.7063 124.023 71.0105 124.815 70.2771C125.607 69.5355 126.336 68.798 127.002 68.0646C127.669 67.323 128.207 66.623 128.615 65.9646C129.032 65.298 129.24 64.7188 129.24 64.2271C129.24 63.6688 129.102 63.1605 128.827 62.7021C128.561 62.2355 128.198 61.8646 127.74 61.5896C127.282 61.3063 126.773 61.1646 126.215 61.1646C125.657 61.1646 125.144 61.3063 124.677 61.5896C124.219 61.8646 123.848 62.2355 123.565 62.7021C123.29 63.1605 123.152 63.6688 123.152 64.2271H120.552C120.552 63.1688 120.811 62.2146 121.327 61.3646C121.852 60.5063 122.54 59.8271 123.39 59.3271C124.248 58.8188 125.19 58.5646 126.215 58.5646C127.248 58.5646 128.19 58.8188 129.04 59.3271C129.89 59.8355 130.569 60.5188 131.077 61.3771C131.586 62.2271 131.84 63.1771 131.84 64.2271C131.84 64.8105 131.719 65.4105 131.477 66.0271C131.236 66.6438 130.898 67.273 130.465 67.9146C130.04 68.5563 129.544 69.2063 128.977 69.8646C128.411 70.523 127.802 71.1813 127.152 71.8396C126.502 72.498 125.84 73.148 125.165 73.7896H131.99V76.3896H120.44ZM140.266 76.7146C139.157 76.7146 138.153 76.448 137.253 75.9146C136.361 75.373 135.653 74.6563 135.128 73.7646C134.611 72.8646 134.353 71.8813 134.353 70.8146H136.953C136.953 71.423 137.103 71.9771 137.403 72.4771C137.703 72.9771 138.103 73.3771 138.603 73.6771C139.103 73.9688 139.657 74.1146 140.266 74.1146C140.866 74.1146 141.416 73.9688 141.916 73.6771C142.416 73.3771 142.816 72.9771 143.116 72.4771C143.416 71.9771 143.566 71.423 143.566 70.8146C143.566 70.2063 143.428 69.6521 143.153 69.1521C142.878 68.6438 142.466 68.2396 141.916 67.9396C141.366 67.6313 140.666 67.4771 139.816 67.4771H135.403L137.178 58.8896H145.641V61.4896H139.291L138.603 64.8771L140.116 64.9021C141.307 64.9271 142.353 65.2021 143.253 65.7271C144.161 66.2438 144.874 66.9438 145.391 67.8271C145.907 68.7021 146.166 69.698 146.166 70.8146C146.166 71.623 146.011 72.3855 145.703 73.1021C145.395 73.8105 144.97 74.4355 144.428 74.9771C143.895 75.5188 143.27 75.9438 142.553 76.2521C141.845 76.5605 141.082 76.7146 140.266 76.7146ZM154.443 76.7146C153.41 76.7146 152.477 76.4813 151.643 76.0146C150.818 75.5396 150.106 74.8855 149.506 74.0521C148.906 73.2188 148.447 72.2563 148.131 71.1646C147.814 70.0646 147.656 68.8896 147.656 67.6396C147.656 66.3896 147.814 65.2146 148.131 64.1146C148.447 63.0146 148.906 62.0521 149.506 61.2271C150.106 60.3938 150.818 59.7438 151.643 59.2771C152.477 58.8021 153.41 58.5646 154.443 58.5646C155.46 58.5646 156.385 58.8021 157.218 59.2771C158.052 59.7438 158.76 60.3938 159.343 61.2271C159.935 62.0521 160.389 63.0146 160.706 64.1146C161.022 65.2146 161.181 66.3896 161.181 67.6396C161.181 68.8896 161.022 70.0646 160.706 71.1646C160.389 72.2563 159.935 73.2188 159.343 74.0521C158.76 74.8855 158.052 75.5396 157.218 76.0146C156.385 76.4813 155.46 76.7146 154.443 76.7146ZM154.443 74.1146C155.402 74.1146 156.197 73.8146 156.831 73.2146C157.472 72.6063 157.952 71.8105 158.268 70.8271C158.585 69.8438 158.743 68.7813 158.743 67.6396C158.743 66.4396 158.577 65.3521 158.243 64.3771C157.918 63.3938 157.435 62.6146 156.793 62.0396C156.16 61.4563 155.377 61.1646 154.443 61.1646C153.702 61.1646 153.056 61.3396 152.506 61.6896C151.964 62.0396 151.514 62.5188 151.156 63.1271C150.806 63.7355 150.539 64.4271 150.356 65.2021C150.181 65.9771 150.093 66.7896 150.093 67.6396C150.093 68.7813 150.256 69.8438 150.581 70.8271C150.906 71.8105 151.389 72.6063 152.031 73.2146C152.681 73.8146 153.485 74.1146 154.443 74.1146ZM168.994 76.7146C167.961 76.7146 167.027 76.4813 166.194 76.0146C165.369 75.5396 164.657 74.8855 164.057 74.0521C163.457 73.2188 162.998 72.2563 162.682 71.1646C162.365 70.0646 162.207 68.8896 162.207 67.6396C162.207 66.3896 162.365 65.2146 162.682 64.1146C162.998 63.0146 163.457 62.0521 164.057 61.2271C164.657 60.3938 165.369 59.7438 166.194 59.2771C167.027 58.8021 167.961 58.5646 168.994 58.5646C170.011 58.5646 170.936 58.8021 171.769 59.2771C172.602 59.7438 173.311 60.3938 173.894 61.2271C174.486 62.0521 174.94 63.0146 175.257 64.1146C175.573 65.2146 175.732 66.3896 175.732 67.6396C175.732 68.8896 175.573 70.0646 175.257 71.1646C174.94 72.2563 174.486 73.2188 173.894 74.0521C173.311 74.8855 172.602 75.5396 171.769 76.0146C170.936 76.4813 170.011 76.7146 168.994 76.7146ZM168.994 74.1146C169.952 74.1146 170.748 73.8146 171.382 73.2146C172.023 72.6063 172.502 71.8105 172.819 70.8271C173.136 69.8438 173.294 68.7813 173.294 67.6396C173.294 66.4396 173.127 65.3521 172.794 64.3771C172.469 63.3938 171.986 62.6146 171.344 62.0396C170.711 61.4563 169.927 61.1646 168.994 61.1646C168.252 61.1646 167.607 61.3396 167.057 61.6896C166.515 62.0396 166.065 62.5188 165.707 63.1271C165.357 63.7355 165.09 64.4271 164.907 65.2021C164.732 65.9771 164.644 66.7896 164.644 67.6396C164.644 68.7813 164.807 69.8438 165.132 70.8271C165.457 71.8105 165.94 72.6063 166.582 73.2146C167.232 73.8146 168.036 74.1146 168.994 74.1146ZM183.545 76.7146C182.511 76.7146 181.578 76.4813 180.745 76.0146C179.92 75.5396 179.207 74.8855 178.607 74.0521C178.007 73.2188 177.549 72.2563 177.232 71.1646C176.916 70.0646 176.757 68.8896 176.757 67.6396C176.757 66.3896 176.916 65.2146 177.232 64.1146C177.549 63.0146 178.007 62.0521 178.607 61.2271C179.207 60.3938 179.92 59.7438 180.745 59.2771C181.578 58.8021 182.511 58.5646 183.545 58.5646C184.561 58.5646 185.486 58.8021 186.32 59.2771C187.153 59.7438 187.861 60.3938 188.445 61.2271C189.036 62.0521 189.491 63.0146 189.807 64.1146C190.124 65.2146 190.282 66.3896 190.282 67.6396C190.282 68.8896 190.124 70.0646 189.807 71.1646C189.491 72.2563 189.036 73.2188 188.445 74.0521C187.861 74.8855 187.153 75.5396 186.32 76.0146C185.486 76.4813 184.561 76.7146 183.545 76.7146ZM183.545 74.1146C184.503 74.1146 185.299 73.8146 185.932 73.2146C186.574 72.6063 187.053 71.8105 187.37 70.8271C187.686 69.8438 187.845 68.7813 187.845 67.6396C187.845 66.4396 187.678 65.3521 187.345 64.3771C187.02 63.3938 186.536 62.6146 185.895 62.0396C185.261 61.4563 184.478 61.1646 183.545 61.1646C182.803 61.1646 182.157 61.3396 181.607 61.6896C181.066 62.0396 180.616 62.5188 180.257 63.1271C179.907 63.7355 179.641 64.4271 179.457 65.2021C179.282 65.9771 179.195 66.7896 179.195 67.6396C179.195 68.7813 179.357 69.8438 179.682 70.8271C180.007 71.8105 180.491 72.6063 181.132 73.2146C181.782 73.8146 182.586 74.1146 183.545 74.1146ZM196.972 75.1396V70.1896H192.022V67.5896H196.972V62.6396H199.572V67.5896H204.522V70.1896H199.572V75.1396H196.972Z" fill="#343F52"/>
<path d="M127.288 92.1896H128.632V103.39H127.288V98.0616H121.744V103.39H120.4V92.1896H121.744V96.7176H127.288V92.1896ZM136.91 95.3896H138.254V103.39H136.91L136.854 102.038C136.603 102.502 136.257 102.878 135.814 103.166C135.377 103.454 134.854 103.598 134.246 103.598C133.659 103.598 133.11 103.488 132.598 103.27C132.086 103.046 131.633 102.739 131.238 102.35C130.849 101.955 130.545 101.502 130.326 100.99C130.107 100.478 129.998 99.9256 129.998 99.3336C129.998 98.763 130.105 98.2243 130.318 97.7176C130.531 97.211 130.827 96.7683 131.206 96.3896C131.59 96.0056 132.033 95.707 132.534 95.4936C133.035 95.275 133.574 95.1656 134.15 95.1656C134.779 95.1656 135.331 95.315 135.806 95.6136C136.281 95.907 136.665 96.2883 136.958 96.7576L136.91 95.3896ZM134.222 102.294C134.75 102.294 135.206 102.166 135.59 101.91C135.979 101.648 136.278 101.296 136.486 100.854C136.699 100.411 136.806 99.923 136.806 99.3896C136.806 98.8456 136.699 98.355 136.486 97.9176C136.273 97.475 135.971 97.1256 135.582 96.8696C135.198 96.6083 134.745 96.4776 134.222 96.4776C133.694 96.4776 133.214 96.6083 132.782 96.8696C132.35 97.131 132.006 97.483 131.75 97.9256C131.499 98.363 131.374 98.851 131.374 99.3896C131.374 99.9283 131.505 100.419 131.766 100.862C132.027 101.299 132.374 101.648 132.806 101.91C133.238 102.166 133.71 102.294 134.222 102.294ZM141.197 107.39H139.853V95.3896H141.197V96.7576C141.469 96.2883 141.832 95.9096 142.285 95.6216C142.738 95.3283 143.277 95.1816 143.901 95.1816C144.482 95.1816 145.026 95.291 145.533 95.5096C146.045 95.7283 146.493 96.0323 146.877 96.4216C147.261 96.8056 147.562 97.251 147.781 97.7576C148 98.2643 148.109 98.8083 148.109 99.3896C148.109 99.971 148 100.518 147.781 101.03C147.562 101.542 147.261 101.992 146.877 102.382C146.493 102.766 146.045 103.067 145.533 103.286C145.026 103.504 144.482 103.614 143.901 103.614C143.277 103.614 142.738 103.47 142.285 103.182C141.832 102.888 141.469 102.507 141.197 102.038V107.39ZM143.885 96.4856C143.368 96.4856 142.914 96.6163 142.525 96.8776C142.136 97.139 141.834 97.4883 141.621 97.9256C141.413 98.363 141.309 98.851 141.309 99.3896C141.309 99.923 141.413 100.411 141.621 100.854C141.834 101.296 142.133 101.648 142.517 101.91C142.906 102.171 143.362 102.302 143.885 102.302C144.402 102.302 144.877 102.174 145.309 101.918C145.741 101.656 146.088 101.307 146.349 100.87C146.61 100.427 146.741 99.9336 146.741 99.3896C146.741 98.8563 146.613 98.371 146.357 97.9336C146.101 97.491 145.757 97.139 145.325 96.8776C144.893 96.6163 144.413 96.4856 143.885 96.4856ZM150.791 107.39H149.447V95.3896H150.791V96.7576C151.063 96.2883 151.425 95.9096 151.879 95.6216C152.332 95.3283 152.871 95.1816 153.495 95.1816C154.076 95.1816 154.62 95.291 155.127 95.5096C155.639 95.7283 156.087 96.0323 156.471 96.4216C156.855 96.8056 157.156 97.251 157.375 97.7576C157.593 98.2643 157.703 98.8083 157.703 99.3896C157.703 99.971 157.593 100.518 157.375 101.03C157.156 101.542 156.855 101.992 156.471 102.382C156.087 102.766 155.639 103.067 155.127 103.286C154.62 103.504 154.076 103.614 153.495 103.614C152.871 103.614 152.332 103.47 151.879 103.182C151.425 102.888 151.063 102.507 150.791 102.038V107.39ZM153.479 96.4856C152.961 96.4856 152.508 96.6163 152.119 96.8776C151.729 97.139 151.428 97.4883 151.215 97.9256C151.007 98.363 150.903 98.851 150.903 99.3896C150.903 99.923 151.007 100.411 151.215 100.854C151.428 101.296 151.727 101.648 152.111 101.91C152.5 102.171 152.956 102.302 153.479 102.302C153.996 102.302 154.471 102.174 154.903 101.918C155.335 101.656 155.681 101.307 155.943 100.87C156.204 100.427 156.335 99.9336 156.335 99.3896C156.335 98.8563 156.207 98.371 155.951 97.9336C155.695 97.491 155.351 97.139 154.919 96.8776C154.487 96.6163 154.007 96.4856 153.479 96.4856ZM164.083 95.3896H165.507L161.131 107.39H159.707L161.155 103.39L158.283 95.3896H159.755L161.827 101.542L164.083 95.3896ZM176.131 103.598C175.373 103.598 174.661 103.448 173.995 103.15C173.328 102.846 172.741 102.43 172.235 101.902C171.733 101.368 171.339 100.75 171.051 100.046C170.768 99.3416 170.627 98.5896 170.627 97.7896C170.627 96.9896 170.768 96.2376 171.051 95.5336C171.339 94.8296 171.733 94.2136 172.235 93.6856C172.741 93.1523 173.328 92.7363 173.995 92.4376C174.661 92.1336 175.373 91.9816 176.131 91.9816C177.037 91.9816 177.872 92.1923 178.635 92.6136C179.397 93.035 180.029 93.595 180.531 94.2936L179.339 94.9336C178.965 94.443 178.493 94.0536 177.923 93.7656C177.357 93.4723 176.76 93.3256 176.131 93.3256C175.549 93.3256 175.005 93.443 174.499 93.6776C173.997 93.9123 173.557 94.235 173.179 94.6456C172.8 95.0563 172.504 95.531 172.291 96.0696C172.077 96.6083 171.971 97.1816 171.971 97.7896C171.971 98.403 172.077 98.979 172.291 99.5176C172.509 100.056 172.808 100.531 173.187 100.942C173.571 101.352 174.013 101.675 174.515 101.91C175.021 102.139 175.56 102.254 176.131 102.254C176.781 102.254 177.384 102.107 177.939 101.814C178.499 101.515 178.965 101.126 179.339 100.646L180.531 101.294C180.029 101.992 179.397 102.552 178.635 102.974C177.872 103.39 177.037 103.598 176.131 103.598ZM182.15 103.39V91.3896H183.494V103.39H182.15ZM185.416 95.3896H186.76V103.39H185.416V95.3896ZM186.104 94.0856C185.89 94.0856 185.712 94.0163 185.568 93.8776C185.424 93.739 185.352 93.5656 185.352 93.3576C185.352 93.1496 185.424 92.9763 185.568 92.8376C185.712 92.699 185.888 92.6296 186.096 92.6296C186.304 92.6296 186.48 92.699 186.624 92.8376C186.768 92.9763 186.84 93.1496 186.84 93.3576C186.84 93.5656 186.768 93.739 186.624 93.8776C186.485 94.0163 186.312 94.0856 186.104 94.0856ZM192.092 103.598C191.356 103.598 190.684 103.408 190.076 103.03C189.473 102.651 188.99 102.144 188.628 101.51C188.27 100.87 188.092 100.163 188.092 99.3896C188.092 98.803 188.196 98.2563 188.404 97.7496C188.612 97.2376 188.897 96.7896 189.26 96.4056C189.628 96.0163 190.054 95.7123 190.54 95.4936C191.025 95.275 191.542 95.1656 192.092 95.1656C192.694 95.1656 193.246 95.2883 193.748 95.5336C194.254 95.7736 194.686 96.1096 195.044 96.5416C195.406 96.9736 195.676 97.475 195.852 98.0456C196.033 98.6163 196.1 99.227 196.052 99.8776H189.524C189.588 100.331 189.737 100.736 189.972 101.094C190.206 101.446 190.505 101.726 190.868 101.934C191.236 102.142 191.644 102.248 192.092 102.254C192.572 102.254 193.006 102.131 193.396 101.886C193.785 101.635 194.1 101.294 194.34 100.862L195.708 101.182C195.388 101.891 194.905 102.472 194.26 102.926C193.614 103.374 192.892 103.598 192.092 103.598ZM189.484 98.8216H194.7C194.657 98.3736 194.513 97.9656 194.268 97.5976C194.022 97.2243 193.71 96.9256 193.332 96.7016C192.953 96.4776 192.54 96.3656 192.092 96.3656C191.644 96.3656 191.233 96.475 190.86 96.6936C190.486 96.9123 190.177 97.2083 189.932 97.5816C189.692 97.9496 189.542 98.363 189.484 98.8216ZM204.472 98.4136V103.39H203.128V98.7096C203.128 98.3043 203.029 97.9363 202.832 97.6056C202.635 97.275 202.371 97.0136 202.04 96.8216C201.709 96.6243 201.341 96.5256 200.936 96.5256C200.536 96.5256 200.168 96.6243 199.832 96.8216C199.501 97.0136 199.237 97.275 199.04 97.6056C198.843 97.9363 198.744 98.3043 198.744 98.7096V103.39H197.4V95.3896H198.744V96.3896C199.027 96.0163 199.384 95.7203 199.816 95.5016C200.248 95.2776 200.717 95.1656 201.224 95.1656C201.821 95.1656 202.365 95.3123 202.856 95.6056C203.352 95.8936 203.744 96.283 204.032 96.7736C204.325 97.2643 204.472 97.811 204.472 98.4136ZM210.216 96.7336H208.4L208.392 103.39H207.048L207.056 96.7336H205.68V95.3896H207.056L207.048 92.8776H208.392L208.4 95.3896H210.216V96.7336ZM214.012 103.542C213.58 103.526 213.158 103.446 212.748 103.302C212.342 103.152 211.985 102.952 211.676 102.702C211.372 102.446 211.15 102.152 211.012 101.822L212.164 101.326C212.244 101.507 212.388 101.678 212.596 101.838C212.804 101.998 213.044 102.126 213.316 102.222C213.588 102.318 213.862 102.366 214.14 102.366C214.433 102.366 214.708 102.32 214.964 102.23C215.22 102.139 215.428 102.006 215.588 101.83C215.753 101.648 215.836 101.432 215.836 101.182C215.836 100.915 215.745 100.707 215.564 100.558C215.388 100.403 215.164 100.283 214.892 100.198C214.625 100.107 214.353 100.022 214.076 99.9416C213.526 99.803 213.036 99.6376 212.604 99.4456C212.172 99.2483 211.83 99.0003 211.58 98.7016C211.334 98.3976 211.212 98.011 211.212 97.5416C211.212 97.0456 211.348 96.6163 211.62 96.2536C211.897 95.891 212.26 95.611 212.708 95.4136C213.156 95.2163 213.636 95.1176 214.148 95.1176C214.793 95.1176 215.382 95.2563 215.916 95.5336C216.449 95.811 216.846 96.187 217.108 96.6616L216.028 97.2936C215.937 97.1016 215.798 96.9336 215.612 96.7896C215.425 96.6403 215.212 96.523 214.972 96.4376C214.732 96.3523 214.486 96.307 214.236 96.3016C213.926 96.291 213.636 96.331 213.364 96.4216C213.097 96.5123 212.881 96.651 212.716 96.8376C212.556 97.019 212.476 97.2456 212.476 97.5176C212.476 97.7843 212.561 97.987 212.732 98.1256C212.908 98.2643 213.134 98.3763 213.412 98.4616C213.694 98.5416 214.001 98.635 214.332 98.7416C214.817 98.8963 215.27 99.075 215.692 99.2776C216.113 99.4803 216.452 99.7336 216.708 100.038C216.969 100.342 217.097 100.718 217.092 101.166C217.092 101.656 216.945 102.086 216.652 102.454C216.358 102.816 215.977 103.094 215.508 103.286C215.044 103.478 214.545 103.563 214.012 103.542Z" fill="#60697B"/>
</g>
<defs>
<filter id="filter0_d_2101_442" x="0.439941" y="0.389648" width="277.66" height="169" filterUnits="userSpaceOnUse" color-interpolation-filters="sRGB">
<feFlood flood-opacity="0" result="BackgroundImageFix"/>
<feColorMatrix in="SourceAlpha" type="matrix" values="0 0 0 0 0 0 0 0 0 0 0 0 0 0 0 0 0 0 127 0" result="hardAlpha"/>
<feOffset dy="5"/>
<feGaussianBlur stdDeviation="17.5"/>
<feComposite in2="hardAlpha" operator="out"/>
<feColorMatrix type="matrix" values="0 0 0 0 0.117647 0 0 0 0 0.133333 0 0 0 0 0.156863 0 0 0 0.07 0"/>
<feBlend mode="normal" in2="BackgroundImageFix" result="effect1_dropShadow_2101_442"/>
<feBlend mode="normal" in="SourceGraphic" in2="effect1_dropShadow_2101_442" result="shape"/>
</filter>
<clipPath id="clip0_2101_442">
<rect width="44" height="44" fill="white" transform="translate(60.4399 57.8896)"/>
</clipPath>
</defs>
</svg>
