<svg width="45" height="45" viewBox="0 0 45 45" fill="none" xmlns="http://www.w3.org/2000/svg">
<g clip-path="url(#clip0_2101_479)">
<path d="M31.4652 14.3739L29.4499 16.3892C29.7846 17.0248 30.0667 17.6868 30.2935 18.3684C31.1405 18.2204 31.9988 18.1468 32.8586 18.1485H33.0974C32.717 16.8257 32.1685 15.5571 31.4652 14.3739ZM0.77002 22.7289C0.77346 25.0918 1.28404 27.4265 2.26726 29.5751C3.25048 31.7237 4.68344 33.6363 6.4693 35.1836C8.25517 36.7308 10.3523 37.8767 12.6191 38.5439C14.8859 39.211 17.2695 39.3838 19.6088 39.0507C19.1983 38.2019 18.8732 37.3144 18.638 36.4014C18.1818 36.4534 17.7228 36.4781 17.2636 36.4753C13.618 36.4753 10.1218 35.0271 7.54405 32.4493C4.96627 29.8715 3.51809 26.3753 3.51809 22.7298C3.51809 19.0842 4.96627 15.588 7.54405 13.0102C10.1218 10.4325 13.618 8.98429 17.2636 8.98429C19.4794 8.98268 21.6619 9.52359 23.6205 10.5598L25.6358 8.54446C23.1057 7.03063 20.2119 6.23252 17.2636 6.23536C12.8912 6.24172 8.69966 7.98147 5.6079 11.0732C2.51613 14.165 0.776382 18.3565 0.77002 22.7289Z" fill="#F857A6"/>
<path d="M7.18359 22.729C7.18814 25.4011 8.25153 27.9625 10.1409 29.8522C12.0302 31.7418 14.5914 32.8057 17.2636 32.8107C17.5759 32.8103 17.888 32.792 18.1982 32.7557C18.194 31.8122 18.2838 30.8706 18.4662 29.9449C18.0697 30.0193 17.667 30.0561 17.2636 30.0549C15.3192 30.0549 13.4546 29.2825 12.0797 27.9077C10.7049 26.5328 9.93252 24.6681 9.93252 22.7238C9.93252 20.7795 10.7049 18.9148 12.0797 17.54C13.4546 16.1652 15.3192 15.3928 17.2636 15.3928C17.7259 15.3845 18.1875 15.4329 18.638 15.5371L20.8561 13.3191C19.7124 12.8664 18.4936 12.6333 17.2636 12.6318C14.5892 12.6382 12.0264 13.7046 10.1369 15.5973C8.24743 17.49 7.18541 20.0546 7.18359 22.729Z" fill="#F857A6"/>
<path d="M17.2635 19.0664C16.5387 19.0664 15.8301 19.2814 15.2274 19.6841C14.6247 20.0869 14.155 20.6593 13.8777 21.3291C13.6004 21.9988 13.5279 22.7357 13.6694 23.4466C13.811 24.1576 14.1602 24.8105 14.6728 25.323C15.1855 25.8354 15.8387 26.1843 16.5497 26.3255C17.2606 26.4667 17.9975 26.3939 18.6671 26.1163C19.3367 25.8386 19.909 25.3687 20.3114 24.7658C20.7139 24.1629 20.9285 23.4542 20.9282 22.7294C20.925 21.7586 20.5379 20.8285 19.8512 20.1422C19.1646 19.4559 18.2343 19.0691 17.2635 19.0664ZM17.2635 23.6468C17.0824 23.6468 16.9054 23.5931 16.7548 23.4925C16.6042 23.3919 16.4868 23.2488 16.4175 23.0815C16.3482 22.9142 16.3301 22.7301 16.3654 22.5524C16.4007 22.3748 16.4879 22.2116 16.616 22.0835C16.7441 21.9555 16.9073 21.8683 17.0849 21.8329C17.2625 21.7976 17.4466 21.8157 17.614 21.885C17.7813 21.9543 17.9243 22.0717 18.0249 22.2223C18.1256 22.3729 18.1793 22.55 18.1793 22.7311C18.1804 22.8516 18.1575 22.9712 18.1119 23.0829C18.0663 23.1945 17.9989 23.2959 17.9136 23.3811C17.8284 23.4664 17.727 23.5338 17.6153 23.5794C17.5037 23.625 17.3841 23.648 17.2635 23.6468Z" fill="#F857A6"/>
<path d="M17.2808 24.1034C17.009 24.1036 16.7433 24.0232 16.5171 23.8724C16.291 23.7216 16.1147 23.5072 16.0104 23.2562C15.9062 23.0052 15.8787 22.7289 15.9314 22.4623C15.9841 22.1956 16.1147 21.9506 16.3067 21.7582L28.2181 9.84334C28.478 9.59646 28.824 9.46086 29.1824 9.46544C29.5408 9.47003 29.8832 9.61445 30.1367 9.8679C30.3901 10.1214 30.5346 10.4638 30.5392 10.8222C30.5437 11.1806 30.4081 11.5266 30.1613 11.7865L18.2498 23.6979C17.9932 23.956 17.6448 24.1019 17.2808 24.1034Z" fill="#605DBA"/>
<path d="M34.2329 11.7336H29.6508C29.2863 11.7336 28.9367 11.5888 28.6789 11.331C28.4212 11.0733 28.2764 10.7237 28.2764 10.3591V5.77874C28.2767 5.41405 28.4205 5.06412 28.6767 4.80459L32.3413 1.13993C32.5336 0.947489 32.7786 0.81641 33.0453 0.763286C33.3121 0.710163 33.5886 0.737383 33.8399 0.841502C34.0912 0.945621 34.3059 1.12196 34.4569 1.34818C34.608 1.57441 34.6885 1.84036 34.6882 2.11236V5.32173H37.8976C38.1696 5.32152 38.4356 5.40201 38.6618 5.55303C38.888 5.70404 39.0644 5.91878 39.1685 6.17007C39.2726 6.42135 39.2998 6.69788 39.2467 6.96464C39.1936 7.2314 39.0625 7.4764 38.87 7.66863L35.2054 11.3333C34.9471 11.5904 34.5973 11.7343 34.2329 11.7336ZM32.8585 20.8978C30.5022 20.8975 28.1988 21.5959 26.2394 22.9047C24.2801 24.2136 22.7529 26.074 21.8509 28.2508C20.949 30.4277 20.7128 32.823 21.1723 35.1341C21.6318 37.4451 22.7663 39.568 24.4323 41.2343C26.0983 42.9005 28.221 44.0353 30.532 44.4951C32.843 44.9549 35.2384 44.7191 37.4153 43.8175C39.5923 42.9159 41.453 41.3889 42.7621 39.4298C44.0712 37.4706 44.7699 35.1673 44.7699 32.811C44.7672 29.6526 43.5114 26.6243 41.2782 24.3907C39.045 22.1572 36.0169 20.901 32.8585 20.8978ZM37.9904 30.538L32.039 36.9516C31.7974 37.2131 31.4639 37.3706 31.1085 37.3912C30.7531 37.4117 30.4036 37.2935 30.1336 37.0615L26.926 34.3126C26.7876 34.1955 26.6738 34.0523 26.5911 33.8911C26.5084 33.7299 26.4583 33.5539 26.4438 33.3733C26.4293 33.1927 26.4507 33.011 26.5067 32.8386C26.5627 32.6663 26.6522 32.5068 26.7701 32.3692C26.888 32.2316 27.032 32.1186 27.1937 32.0369C27.3554 31.9551 27.5317 31.9061 27.7124 31.8927C27.8931 31.8794 28.0746 31.9018 28.2466 31.9589C28.4186 32.0159 28.5776 32.1064 28.7145 32.2251L30.9205 34.115L35.9785 28.6704C36.2264 28.403 36.5704 28.2449 36.9348 28.231C37.2992 28.2172 37.6542 28.3487 37.9217 28.5965C38.1891 28.8444 38.3472 29.1884 38.361 29.5528C38.3749 29.9172 38.2434 30.2722 37.9955 30.5397L37.9904 30.538Z" fill="#605DBA"/>
</g>
<defs>
<clipPath id="clip0_2101_479">
<rect width="44" height="44" fill="white" transform="translate(0.77002 0.72998)"/>
</clipPath>
</defs>
</svg>
