<svg width="45" height="45" viewBox="0 0 45 45" fill="none" xmlns="http://www.w3.org/2000/svg">
<g clip-path="url(#clip0_2101_496)">
<path d="M12.914 15.5989L12.309 11.9896L12.5513 11.7489L11.8019 10.9789C11.2668 10.4377 10.8911 9.75955 10.7159 9.0189C10.5406 8.27826 10.5727 7.50366 10.8085 6.78002C10.8274 6.72502 10.8429 6.68892 10.8635 6.63392L10.6229 6.59783L9.07598 3.35283C8.96515 3.11614 8.78914 2.91593 8.5686 2.77568C8.34806 2.63543 8.09211 2.56094 7.83075 2.56094C7.56939 2.56094 7.31344 2.63543 7.0929 2.77568C6.87236 2.91593 6.69635 3.11614 6.58552 3.35283L5.05927 6.61846L1.67505 7.14611C1.42645 7.18789 1.19413 7.2972 1.00346 7.4621C0.812798 7.627 0.671134 7.84114 0.593954 8.08111C0.514376 8.32121 0.503094 8.5787 0.561366 8.82484C0.619639 9.07098 0.745172 9.29608 0.923954 9.47502L3.41786 12.0239L2.83005 15.6333C2.80001 15.8296 2.81249 16.0301 2.86664 16.2212C2.92079 16.4123 3.01535 16.5896 3.14393 16.7409C3.2725 16.8923 3.43209 17.0143 3.6119 17.0987C3.7917 17.1831 3.98753 17.2279 4.18614 17.23C4.42609 17.2312 4.6625 17.1721 4.87364 17.0581L7.87973 15.372L10.9047 17.022C11.1323 17.1456 11.3895 17.2041 11.6482 17.191C11.9068 17.178 12.1568 17.094 12.3708 16.9481C12.5812 16.797 12.7446 16.5895 12.8422 16.3496C12.9398 16.1097 12.9676 15.8471 12.9225 15.592L12.914 15.5989ZM44.4461 8.02611C44.3672 7.7856 44.2222 7.57215 44.0277 7.41015C43.8331 7.24816 43.597 7.14415 43.3461 7.11002L39.955 6.59439L38.4082 3.34939C38.2975 3.11222 38.1215 2.91155 37.9008 2.77095C37.6801 2.63035 37.4238 2.55566 37.1621 2.55566C36.9004 2.55566 36.6441 2.63035 36.4234 2.77095C36.2026 2.91155 36.0266 3.11222 35.916 3.34939L34.3932 6.61502L34.1921 6.65111C34.1921 6.67002 34.211 6.68721 34.211 6.70611C34.4575 7.4211 34.5006 8.19049 34.3355 8.92853C34.1704 9.66658 33.8036 10.3443 33.276 10.8861L32.4561 11.73L32.75 12.0239L32.164 15.6333C32.1339 15.8296 32.1464 16.0301 32.2005 16.2212C32.2547 16.4123 32.3493 16.5896 32.4778 16.7409C32.6064 16.8923 32.766 17.0143 32.9458 17.0987C33.1256 17.1831 33.3214 17.2279 33.52 17.23C33.76 17.2312 33.9964 17.1721 34.2075 17.0581L37.2136 15.372L40.2386 17.022C40.4662 17.1456 40.7234 17.2041 40.9821 17.191C41.2407 17.178 41.4907 17.094 41.7047 16.9481C41.9139 16.796 42.0762 16.5883 42.1734 16.3486C42.2706 16.109 42.2988 15.8469 42.2547 15.592L41.6497 11.9827L44.1436 9.4183C44.3173 9.23549 44.438 9.00888 44.4928 8.76274C44.5476 8.5166 44.5345 8.26019 44.4547 8.02096L44.4461 8.02611Z" fill="#F857A6"/>
<path d="M17.7385 19.0639C17.5396 19.0641 17.3431 19.0212 17.1625 18.9381C16.9818 18.855 16.8213 18.7337 16.6921 18.5825C16.5628 18.4314 16.4679 18.254 16.4139 18.0626C16.3598 17.8713 16.3479 17.6705 16.379 17.474L17.1713 12.524L13.7544 9.04357C13.5773 8.86338 13.4533 8.63787 13.396 8.39181C13.3386 8.14575 13.3502 7.88865 13.4294 7.64873C13.5086 7.40881 13.6524 7.19535 13.845 7.03179C14.0375 6.86823 14.2714 6.76088 14.521 6.72154L19.1771 5.99623L21.2585 1.52748C21.368 1.29092 21.5424 1.09036 21.7615 0.949156C21.9806 0.807957 22.2354 0.731945 22.496 0.72998C22.7564 0.73005 23.0115 0.804069 23.2314 0.943427C23.4514 1.08278 23.6273 1.28175 23.7387 1.51717L25.851 5.96873L30.5123 6.66482C30.7623 6.70168 30.9974 6.80675 31.1916 6.96849C31.3859 7.13023 31.5318 7.34238 31.6133 7.58163C31.6948 7.82088 31.7088 8.07798 31.6537 8.32467C31.5987 8.57136 31.4767 8.79811 31.3012 8.97998L27.9015 12.4828L28.7265 17.4276C28.7693 17.6824 28.7396 17.9441 28.6406 18.1827C28.5416 18.4213 28.3775 18.6272 28.1669 18.7768C27.9563 18.9264 27.7078 19.0137 27.4499 19.0286C27.192 19.0435 26.9351 18.9854 26.7087 18.8611L22.551 16.5837L18.4054 18.8903C18.2014 19.0037 17.9718 19.0628 17.7385 19.0622V19.0639Z" fill="#605DBA"/>
<path d="M7.85384 31.8962C9.87857 31.8962 11.5199 30.2548 11.5199 28.2301C11.5199 26.2053 9.87857 24.564 7.85384 24.564C5.82911 24.564 4.18774 26.2053 4.18774 28.2301C4.18774 30.2548 5.82911 31.8962 7.85384 31.8962Z" fill="#F857A6"/>
<path d="M12.7489 34.4639C11.7978 35.1803 11.0261 36.1081 10.4949 37.1738C9.96365 38.2395 9.68736 39.4142 9.68783 40.605V41.0639H1.89502C1.53118 41.0612 1.18301 40.9155 0.925731 40.6582C0.668451 40.4009 0.522719 40.0527 0.520021 39.6889V38.7728C0.519569 38.1106 0.64964 37.4548 0.902797 36.8429C1.15595 36.2309 1.52723 35.6749 1.99541 35.2066C2.46359 34.7382 3.01948 34.3668 3.63131 34.1134C4.24313 33.86 4.8989 33.7298 5.56111 33.73H10.145C11.0639 33.731 11.9647 33.9849 12.7489 34.4639Z" fill="#F857A6"/>
<path d="M37.1861 31.8962C39.2108 31.8962 40.8522 30.2548 40.8522 28.2301C40.8522 26.2053 39.2108 24.564 37.1861 24.564C35.1614 24.564 33.52 26.2053 33.52 28.2301C33.52 30.2548 35.1614 31.8962 37.1861 31.8962Z" fill="#F857A6"/>
<path d="M44.5199 38.7711V39.6872C44.5168 40.0509 44.3709 40.3988 44.1137 40.656C43.8565 40.9132 43.5086 41.059 43.1449 41.0622H35.3538V40.605C35.3546 39.4141 35.0784 38.2394 34.5471 37.1736C34.0159 36.1078 33.2441 35.1802 32.2927 34.4639C33.0762 33.9848 33.9766 33.7308 34.8949 33.73H39.4788C40.1409 33.7298 40.7965 33.86 41.4082 34.1133C42.0199 34.3665 42.5758 34.7378 43.0439 35.206C43.5121 35.6741 43.8834 36.2299 44.1366 36.8417C44.3899 37.4534 44.5201 38.109 44.5199 38.7711Z" fill="#F857A6"/>
<path d="M22.52 32.814C25.5576 32.814 28.02 30.3515 28.02 27.314C28.02 24.2764 25.5576 21.814 22.52 21.814C19.4825 21.814 17.02 24.2764 17.02 27.314C17.02 30.3515 19.4825 32.814 22.52 32.814Z" fill="#605DBA"/>
<path d="M27.561 35.564H17.4771C16.1404 35.5649 14.8587 36.0963 13.9135 37.0415C12.9684 37.9867 12.4369 39.2684 12.436 40.6051V43.3551C12.436 43.7197 12.5809 44.0695 12.8388 44.3273C13.0966 44.5852 13.4464 44.7301 13.811 44.7301H31.2271C31.5918 44.7301 31.9415 44.5852 32.1994 44.3273C32.4573 44.0695 32.6021 43.7197 32.6021 43.3551V40.6051C32.6012 39.2684 32.0698 37.9867 31.1246 37.0415C30.1794 36.0963 28.8977 35.5649 27.561 35.564Z" fill="#605DBA"/>
</g>
<defs>
<clipPath id="clip0_2101_496">
<rect width="44" height="44" fill="white" transform="translate(0.52002 0.72998)"/>
</clipPath>
</defs>
</svg>
