<svg width="45" height="45" viewBox="0 0 45 45" fill="none" xmlns="http://www.w3.org/2000/svg">
<g clip-path="url(#clip0_2101_488)">
<path d="M6.14003 19.9798C5.76715 19.9808 5.40281 19.8681 5.09559 19.6568C4.78837 19.4455 4.55287 19.1455 4.42049 18.7969C4.28811 18.4483 4.26513 18.0677 4.35464 17.7057C4.44414 17.3437 4.64186 17.0176 4.92144 16.7709L13.1714 9.43695C13.3655 9.26408 13.5942 9.13463 13.8423 9.05727C14.0904 8.97991 14.3521 8.95641 14.61 8.98836L28.8757 10.7191L36.9538 3.06039C37.3073 2.72489 37.7796 2.54356 38.2668 2.55629C38.754 2.56902 39.2162 2.77477 39.5517 3.12828C39.8872 3.48178 40.0685 3.95408 40.0558 4.44128C40.043 4.92848 39.8373 5.39067 39.4838 5.72617L30.7749 13.9762C30.5789 14.1609 30.3449 14.3005 30.0893 14.3851C29.8336 14.4698 29.5625 14.4974 29.295 14.466L14.9899 12.7318L7.35863 19.5209C7.02351 19.8204 6.58954 19.9857 6.14003 19.9849V19.9798Z" fill="#F857A6"/>
<path d="M39.5991 10.8138C39.4182 10.8142 39.2389 10.7788 39.0717 10.7098C38.9045 10.6408 38.7525 10.5395 38.6245 10.4116L32.2102 3.99381C32.0177 3.80161 31.8866 3.55667 31.8334 3.28996C31.7802 3.02326 31.8073 2.74677 31.9113 2.49545C32.0152 2.24414 32.1914 2.0293 32.4174 1.8781C32.6435 1.72689 32.9093 1.64612 33.1812 1.646H39.5973C39.962 1.646 40.3118 1.79086 40.5696 2.04872C40.8275 2.30659 40.9723 2.65632 40.9723 3.021V9.43709C40.9721 9.70923 40.8912 9.9752 40.7397 10.2013C40.5883 10.4274 40.3732 10.6035 40.1216 10.7072C39.9565 10.778 39.7787 10.8143 39.5991 10.8138Z" fill="#F857A6"/>
<path d="M13.4741 33.2711V38.3122H2.47412V33.2711C2.47412 32.6634 2.7155 32.0807 3.14517 31.651C3.57483 31.2214 4.15758 30.98 4.76521 30.98H11.1813C11.7891 30.98 12.372 31.2213 12.802 31.6509C13.2319 32.0805 13.4737 32.6633 13.4741 33.2711ZM28.1402 22.2711V38.3122H17.1402V22.2711C17.1402 21.6634 17.3816 21.0807 17.8113 20.651C18.2409 20.2214 18.8237 19.98 19.4313 19.98H25.8474C26.1484 19.9798 26.4465 20.0389 26.7247 20.1539C27.0029 20.2689 27.2556 20.4376 27.4686 20.6504C27.6815 20.8632 27.8504 21.1158 27.9657 21.3939C28.0809 21.672 28.1402 21.9701 28.1402 22.2711ZM42.8063 25.9389V38.3139H31.8063V25.9389C31.8059 25.6378 31.8648 25.3396 31.9797 25.0613C32.0947 24.7831 32.2634 24.5302 32.4762 24.3172C32.6891 24.1042 32.9418 23.9353 33.22 23.8202C33.4982 23.705 33.7963 23.6458 34.0974 23.6461H40.5152C40.8164 23.6456 41.1146 23.7046 41.3929 23.8197C41.6712 23.9348 41.924 24.1037 42.1369 24.3167C42.3497 24.5297 42.5184 24.7827 42.6333 25.0611C42.7482 25.3394 42.807 25.6377 42.8063 25.9389Z" fill="#605DBA"/>
<path d="M43.2651 43.814H2.01514C1.65046 43.814 1.30073 43.6691 1.04286 43.4112C0.785002 43.1534 0.640137 42.8036 0.640137 42.439C0.640137 42.0743 0.785002 41.7246 1.04286 41.4667C1.30073 41.2088 1.65046 41.064 2.01514 41.064H43.2651C43.6298 41.064 43.9795 41.2088 44.2374 41.4667C44.4953 41.7246 44.6401 42.0743 44.6401 42.439C44.6401 42.8036 44.4953 43.1534 44.2374 43.4112C43.9795 43.6691 43.6298 43.814 43.2651 43.814Z" fill="#F857A6"/>
</g>
<defs>
<clipPath id="clip0_2101_488">
<rect width="44" height="44" fill="white" transform="translate(0.640137 0.72998)"/>
</clipPath>
</defs>
</svg>
