<svg width="44" height="45" viewBox="0 0 44 45" fill="none" xmlns="http://www.w3.org/2000/svg">
<g clip-path="url(#clip0_2101_413)">
<path d="M30.5612 16.3311C30.5801 16.1111 30.5973 15.8911 30.5973 15.6436C30.5973 15.3961 30.5766 15.1847 30.5612 14.9561L32.0823 13.8355C32.5258 13.5064 32.8339 13.0267 32.9488 12.4864C33.0637 11.9462 32.9774 11.3827 32.7062 10.9016L31.3501 8.49874C31.0825 8.00758 30.6373 7.63722 30.1057 7.46342C29.5741 7.28961 28.9961 7.3255 28.4901 7.56374L26.8126 8.35265C26.479 8.12087 26.1298 7.91241 25.7676 7.72874L25.5751 5.77108C25.5254 5.21636 25.2703 4.70019 24.8598 4.32374C24.4494 3.9473 23.9131 3.73772 23.3562 3.73608H20.6423C20.085 3.73729 19.5483 3.94668 19.1375 4.32316C18.7267 4.69965 18.4713 5.21606 18.4216 5.77108L18.2377 7.73218C17.8737 7.91563 17.5228 8.1241 17.1876 8.35608L15.5015 7.56718C14.9948 7.33314 14.4183 7.29946 13.8878 7.47289C13.3573 7.64632 12.9121 8.01403 12.6415 8.50218L11.2923 10.9222C11.0184 11.4026 10.9306 11.967 11.0457 12.5079C11.1607 13.0488 11.4705 13.5286 11.9162 13.8561L13.4373 14.975C13.4166 15.195 13.4012 15.415 13.4012 15.6625C13.4012 15.91 13.4201 16.1231 13.4373 16.35L11.9162 17.4689C11.4738 17.7962 11.1664 18.2739 11.0518 18.812C10.9372 19.3502 11.0233 19.9117 11.294 20.3908L12.6501 22.8108C12.9201 23.2995 13.3653 23.6677 13.896 23.8413C14.4267 24.0148 15.0035 23.9806 15.5101 23.7458L17.1962 22.9569C17.5297 23.1886 17.8789 23.3971 18.2412 23.5808L18.4251 25.5419C18.4748 26.0966 18.7298 26.6128 19.1403 26.9892C19.5508 27.3657 20.087 27.5752 20.644 27.5769H23.3579C23.9151 27.5757 24.4518 27.3663 24.8626 26.9898C25.2735 26.6133 25.5288 26.0969 25.5785 25.5419L25.7624 23.5808C26.1247 23.3971 26.4739 23.1886 26.8074 22.9569L28.4935 23.7458C28.9995 23.984 29.5775 24.0199 30.1091 23.8461C30.6408 23.6723 31.0859 23.3019 31.3535 22.8108L32.7079 20.3908C32.9817 19.9103 33.0695 19.346 32.9545 18.805C32.8394 18.2641 32.5296 17.7843 32.084 17.4569L30.5612 16.3311ZM26.584 15.6539C26.584 16.5605 26.3151 17.4468 25.8114 18.2006C25.3078 18.9544 24.5918 19.5419 23.7542 19.8889C22.9166 20.2358 21.995 20.3266 21.1058 20.1497C20.2166 19.9729 19.3998 19.5363 18.7588 18.8952C18.1177 18.2541 17.6811 17.4374 17.5042 16.5482C17.3274 15.659 17.4181 14.7373 17.7651 13.8997C18.112 13.0621 18.6996 12.3462 19.4534 11.8425C20.2072 11.3388 21.0935 11.07 22.0001 11.07C23.2155 11.0709 24.3809 11.5541 25.2404 12.4136C26.0998 13.273 26.5831 14.4384 26.584 15.6539Z" fill="#F857A6"/>
<path d="M38.5 29.4041H5.5C4.04131 29.4041 2.64236 29.9835 1.61091 31.015C0.579463 32.0464 0 33.4454 0 34.9041C0 36.3627 0.579463 37.7617 1.61091 38.7931C2.64236 39.8246 4.04131 40.4041 5.5 40.4041H38.5C39.9587 40.4041 41.3576 39.8246 42.3891 38.7931C43.4205 37.7617 44 36.3627 44 34.9041C44 33.4454 43.4205 32.0464 42.3891 31.015C41.3576 29.9835 39.9587 29.4041 38.5 29.4041ZM7.33391 36.7362C6.97112 36.7362 6.61649 36.6286 6.31486 36.4271C6.01324 36.2255 5.77819 35.9389 5.63943 35.6037C5.50068 35.2685 5.46446 34.8997 5.53536 34.5439C5.60627 34.1881 5.7811 33.8614 6.03775 33.605C6.2944 33.3486 6.62133 33.174 6.97718 33.1035C7.33304 33.0329 7.70183 33.0695 8.0369 33.2085C8.37198 33.3476 8.65827 33.5829 8.85958 33.8847C9.06088 34.1865 9.16815 34.5413 9.16781 34.9041C9.16736 35.3901 8.97394 35.8562 8.63007 36.1997C8.28619 36.5433 7.81999 36.7362 7.33391 36.7362ZM16.5 36.7362C16.1372 36.7362 15.7826 36.6286 15.481 36.4271C15.1793 36.2255 14.9443 35.9389 14.8055 35.6037C14.6668 35.2685 14.6306 34.8997 14.7015 34.5439C14.7724 34.1881 14.9472 33.8614 15.2038 33.605C15.4605 33.3486 15.7874 33.174 16.1433 33.1035C16.4991 33.0329 16.8679 33.0695 17.203 33.2085C17.5381 33.3476 17.8244 33.5829 18.0257 33.8847C18.227 34.1865 18.3342 34.5413 18.3339 34.9041C18.3335 35.3901 18.14 35.8562 17.7962 36.1997C17.4523 36.5433 16.9861 36.7362 16.5 36.7362ZM27.5 36.7362C27.1372 36.7362 26.7826 36.6286 26.481 36.4271C26.1793 36.2255 25.9443 35.9389 25.8055 35.6037C25.6668 35.2685 25.6306 34.8997 25.7015 34.5439C25.7724 34.1881 25.9472 33.8614 26.2038 33.605C26.4605 33.3486 26.7874 33.174 27.1433 33.1035C27.4991 33.0329 27.8679 33.0695 28.203 33.2085C28.5381 33.3476 28.8244 33.5829 29.0257 33.8847C29.227 34.1865 29.3342 34.5413 29.3339 34.9041C29.3335 35.3901 29.14 35.8562 28.7962 36.1997C28.4523 36.5433 27.9861 36.7362 27.5 36.7362ZM36.6661 36.7362C36.3033 36.7362 35.9487 36.6286 35.6471 36.4271C35.3454 36.2255 35.1104 35.9389 34.9716 35.6037C34.8329 35.2685 34.7966 34.8997 34.8675 34.5439C34.9385 34.1881 35.1133 33.8614 35.3699 33.605C35.6266 33.3486 35.9535 33.174 36.3094 33.1035C36.6652 33.0329 37.034 33.0695 37.3691 33.2085C37.7042 33.3476 37.9905 33.5829 38.1918 33.8847C38.3931 34.1865 38.5003 34.5413 38.5 34.9041C38.4995 35.3901 38.3061 35.8562 37.9623 36.1997C37.6184 36.5433 37.1522 36.7362 36.6661 36.7362Z" fill="#605DBA"/>
</g>
<defs>
<clipPath id="clip0_2101_413">
<rect width="44" height="44" fill="white" transform="translate(0 0.0700684)"/>
</clipPath>
</defs>
</svg>
