<svg width="44" height="45" viewBox="0 0 44 45" fill="none" xmlns="http://www.w3.org/2000/svg">
<g clip-path="url(#clip0_2101_391)">
<path d="M32.0838 20.7661C29.7267 20.7658 27.4224 21.4644 25.4624 22.7737C23.5023 24.0829 21.9745 25.944 21.0722 28.1216C20.1698 30.2992 19.9335 32.6954 20.393 35.0073C20.8525 37.3192 21.9872 39.4429 23.6537 41.1099C25.3202 42.7769 27.4436 43.9122 29.7554 44.3724C32.0672 44.8326 34.4635 44.5969 36.6413 43.6952C38.8191 42.7935 40.6806 41.2662 41.9905 39.3065C43.3003 37.3469 43.9996 35.0428 43.9999 32.6856C43.9963 29.5261 42.7398 26.497 40.506 24.2625C38.2722 22.028 35.2434 20.7707 32.0838 20.7661ZM38.5017 30.2192L32.0856 37.5531C31.9201 37.7421 31.7176 37.8951 31.4905 38.0024C31.2634 38.1097 31.0166 38.1692 30.7656 38.1771H30.7054C30.22 38.1766 29.7546 37.9838 29.4112 37.6408L25.7451 33.9747C25.5748 33.8044 25.4397 33.6022 25.3475 33.3797C25.2554 33.1572 25.2079 32.9187 25.2079 32.6779C25.2079 32.4371 25.2554 32.1986 25.3475 31.9761C25.4397 31.7536 25.5748 31.5514 25.7451 31.3811C26.089 31.0372 26.5555 30.844 27.0419 30.844C27.2827 30.844 27.5212 30.8914 27.7437 30.9836C27.9662 31.0757 28.1684 31.2108 28.3387 31.3811L30.6177 33.6619L35.7499 27.8078C35.9039 27.6115 36.0964 27.4487 36.3154 27.3294C36.5345 27.21 36.7757 27.1366 37.0241 27.1137C37.2725 27.0907 37.523 27.1187 37.7603 27.1959C37.9975 27.2731 38.2165 27.3979 38.4039 27.5626C38.5912 27.7274 38.743 27.9286 38.8499 28.154C38.9568 28.3795 39.0165 28.6243 39.0255 28.8737C39.0345 29.123 38.9925 29.3715 38.9022 29.6041C38.8118 29.8366 38.6749 30.0483 38.4999 30.2261L38.5017 30.2192Z" fill="#F857A6"/>
<path d="M30.58 6.15501L15.9122 0.655005C15.6984 0.581144 15.466 0.581144 15.2522 0.655005L0.58266 6.15501C0.410408 6.22308 0.262674 6.34149 0.158736 6.49479C0.054797 6.64809 -0.00051964 6.82917 3.67907e-06 7.01438V18.8033C3.67907e-06 35.5233 15.235 39.0433 15.3828 39.0845C15.5157 39.1097 15.6521 39.1097 15.785 39.0845C16.4162 38.937 17.035 38.741 17.6361 38.4984C16.8838 36.6529 16.4979 34.6786 16.5 32.6856C16.5025 28.7111 18.0217 24.8873 20.7475 21.9947C23.4734 19.1021 27.2004 17.3588 31.1678 17.1206V7.01954C31.1675 6.83383 31.1112 6.65253 31.0064 6.49926C30.9015 6.34598 30.7529 6.22782 30.58 6.16016V6.15501Z" fill="#605DBA"/>
</g>
<defs>
<clipPath id="clip0_2101_391">
<rect width="44" height="44" fill="white" transform="translate(0 0.600098)"/>
</clipPath>
</defs>
</svg>
