<svg width="44" height="37" viewBox="0 0 44 37" fill="none" xmlns="http://www.w3.org/2000/svg">
<path d="M40.7879 0.267578H3.20866C2.35892 0.271645 1.54515 0.611005 0.944287 1.21187C0.343427 1.81273 0.00406687 2.6265 0 3.47623L0 28.2243C0.00406687 29.074 0.343427 29.8878 0.944287 30.4887C1.54515 31.0895 2.35892 31.4289 3.20866 31.433H17.2463C17.0315 32.3524 16.4609 33.839 14.9348 35.3686C14.8066 35.4967 14.7193 35.66 14.6839 35.8377C14.6485 36.0154 14.6667 36.1997 14.736 36.3671C14.8054 36.5345 14.9229 36.6776 15.0736 36.7783C15.2243 36.8789 15.4015 36.9326 15.5827 36.9325H28.4156C28.597 36.9329 28.7744 36.8795 28.9254 36.779C29.0763 36.6785 29.1941 36.5354 29.2636 36.3679C29.3332 36.2004 29.3515 36.016 29.3162 35.8381C29.2809 35.6602 29.1935 35.4968 29.0652 35.3686C27.5425 33.8459 26.9565 32.3541 26.7279 31.433H40.7896C41.6389 31.428 42.452 31.0883 43.0524 30.4876C43.6528 29.8869 43.9921 29.0736 43.9966 28.2243V3.47623C43.9912 2.62691 43.6514 1.81392 43.0508 1.21335C42.4502 0.612775 41.6372 0.272985 40.7879 0.267578ZM40.3308 24.0996H3.66581V3.9351H40.329V24.0996H40.3308Z" fill="#605DBA"/>
</svg>
